<svg width="585" height="542" viewBox="0 0 585 542" fill="none" xmlns="http://www.w3.org/2000/svg">
<path d="M21.6334 43.0507C22.6771 18.9786 42.4965 0 66.5912 0H521.63C545.837 0 565.707 19.15 566.599 43.3406L583.278 495.341C584.219 520.827 563.812 542 538.309 542H46.9934C21.3757 542 0.925933 520.644 2.03562 495.051L21.6334 43.0507Z" fill="#224235"/>
<path fill-rule="evenodd" clip-rule="evenodd" d="M4.24907 444L2.03561 495.051C0.925924 520.644 21.3756 542 46.9934 542H538.309C563.812 542 584.219 520.827 583.278 495.341L581.384 444H4.24907Z" fill="#BD9233"/>
<path d="M183.5 120C183.5 129.389 175.889 137 166.5 137C157.111 137 149.5 129.389 149.5 120C149.5 110.611 157.111 103 166.5 103C175.889 103 183.5 110.611 183.5 120Z" fill="#142B21"/>
<path d="M437 120C437 129.389 429.389 137 420 137C410.611 137 403 129.389 403 120C403 110.611 410.611 103 420 103C429.389 103 437 110.611 437 120Z" fill="#142B21"/>
<path fill-rule="evenodd" clip-rule="evenodd" d="M167.365 117C160.858 117 156.51 123.655 159.607 129.378C185.29 176.838 234.95 209 292 209C349.555 209 399.59 176.266 425.07 128.112C427.796 122.961 423.898 117 418.07 117V117C415.081 117 412.35 118.654 410.852 121.24C386.614 163.076 342.9 191 293 191C243.295 191 199.727 163.293 175.432 121.729C173.749 118.848 170.702 117 167.365 117V117Z" fill="white"/>
</svg>
